<svg version="1.1"
     baseProfile="full"
     width="148" height="48"
     xmlns="http://www.w3.org/2000/svg">
  <g fill="violet" stroke="black" transform="translate(10,10)">
    <g transform="translate(0,8)">
      <path d="M0 0 v 20 h 20 v -20 h -20" />
      <path d="M0 0 l 8 -8 h 20 l -8 8 h -20"/>
      <path d="M0 0 l 8 -8 h 20 l -8 8 h -20" fill="black" fill-opacity="0.2"/>
      <path d="M20 0 l 8 -8 v 20 l -8 8 v -20"/>
      <path d="M20 0 l 8 -8 v 20 l -8 8 v -20" fill="black" fill-opacity="0.1"/>
    </g>
  </g>
  <g fill="blue" stroke="black" transform="translate(35,10)">
    <g transform="translate(0,8)">
      <path d="M0 0 v 20 h 20 v -20 h -20" />
      <path d="M0 0 l 8 -8 h 20 l -8 8 h -20"/>
      <path d="M0 0 l 8 -8 h 20 l -8 8 h -20" fill="black" fill-opacity="0.2"/>
      <path d="M20 0 l 8 -8 v 20 l -8 8 v -20"/>
      <path d="M20 0 l 8 -8 v 20 l -8 8 v -20" fill="black" fill-opacity="0.1"/>
    </g>
  </g>
  <g fill="cyan" stroke="black" transform="translate(60,10)">
    <g transform="translate(0,8)">
      <path d="M0 0 v 20 h 20 v -20 h -20" />
      <path d="M0 0 l 8 -8 h 20 l -8 8 h -20"/>
      <path d="M0 0 l 8 -8 h 20 l -8 8 h -20" fill="black" fill-opacity="0.2"/>
      <path d="M20 0 l 8 -8 v 20 l -8 8 v -20"/>
      <path d="M20 0 l 8 -8 v 20 l -8 8 v -20" fill="black" fill-opacity="0.1"/>
    </g>
  </g>
  <g fill="purple" stroke="black" transform="translate(85,10)">
    <g transform="translate(0,8)">
      <path d="M0 0 v 20 h 20 v -20 h -20" />
      <path d="M0 0 l 8 -8 h 20 l -8 8 h -20"/>
      <path d="M0 0 l 8 -8 h 20 l -8 8 h -20" fill="black" fill-opacity="0.2"/>
      <path d="M20 0 l 8 -8 v 20 l -8 8 v -20"/>
      <path d="M20 0 l 8 -8 v 20 l -8 8 v -20" fill="black" fill-opacity="0.1"/>
    </g>
  </g>
  <g fill="white" stroke="black" transform="translate(110,10)">
    <g transform="translate(0,8)">
      <path d="M0 0 v 20 h 20 v -20 h -20" />
      <path d="M0 0 l 8 -8 h 20 l -8 8 h -20"/>
      <path d="M0 0 l 8 -8 h 20 l -8 8 h -20" fill="black" fill-opacity="0.2"/>
      <path d="M20 0 l 8 -8 v 20 l -8 8 v -20"/>
      <path d="M20 0 l 8 -8 v 20 l -8 8 v -20" fill="black" fill-opacity="0.1"/>
    </g>
  </g>
</svg>
