<?xml version="1.0" encoding="UTF-8" standalone="no"?>
<svg
   xmlns:dc="http://purl.org/dc/elements/1.1/"
   xmlns:cc="http://creativecommons.org/ns#"
   xmlns:rdf="http://www.w3.org/1999/02/22-rdf-syntax-ns#"
   xmlns:svg="http://www.w3.org/2000/svg"
   xmlns="http://www.w3.org/2000/svg"
   xmlns:sodipodi="http://sodipodi.sourceforge.net/DTD/sodipodi-0.dtd"
   xmlns:inkscape="http://www.inkscape.org/namespaces/inkscape"
   width="1024"
   height="1024"
   viewBox="0 0 270.93333 270.93334"
   version="1.1"
   id="svg8"
   inkscape:version="1.0.2 (e86c870879, 2021-01-15)"
   sodipodi:docname="base.svg">
  <defs
     id="defs2">
    <inkscape:path-effect
       effect="fillet_chamfer"
       id="path-effect834"
       is_visible="true"
       lpeversion="1"
       satellites_param="F,0,0,1,0,42,0,1 @ F,0,0,1,0,42,0,1 @ F,0,0,1,0,42,0,1 @ F,0,0,1,0,42,0,1 @ F,0,0,1,0,42,0,1 @ F,0,0,1,0,42,0,1"
       unit="mm"
       method="auto"
       mode="F"
       radius="42"
       chamfer_steps="1"
       flexible="false"
       use_knot_distance="true"
       apply_no_radius="true"
       apply_with_radius="true"
       only_selected="false"
       hide_knots="false" />
    <inkscape:path-effect
       effect="fillet_chamfer"
       id="path-effect832"
       is_visible="true"
       lpeversion="1"
       satellites_param="F,0,0,1,0,42,0,1 @ F,0,0,1,0,42,0,1 @ F,0,0,1,0,42,0,1 @ F,0,0,1,0,42,0,1 @ F,0,0,1,0,42,0,1 @ F,0,0,1,0,42,0,1"
       unit="mm"
       method="auto"
       mode="F"
       radius="42"
       chamfer_steps="1"
       flexible="false"
       use_knot_distance="true"
       apply_no_radius="true"
       apply_with_radius="true"
       only_selected="false"
       hide_knots="false" />
  </defs>
  <sodipodi:namedview
     id="base"
     pagecolor="#ffffff"
     bordercolor="#666666"
     borderopacity="1.0"
     inkscape:pageopacity="0.0"
     inkscape:pageshadow="2"
     inkscape:zoom="0.4427743"
     inkscape:cx="620.37002"
     inkscape:cy="515.94179"
     inkscape:document-units="mm"
     inkscape:current-layer="layer1"
     inkscape:document-rotation="0"
     showgrid="false"
     units="px"
     inkscape:window-width="1848"
     inkscape:window-height="1016"
     inkscape:window-x="0"
     inkscape:window-y="0"
     inkscape:window-maximized="1" />
  <metadata
     id="metadata5">
    <rdf:RDF>
      <cc:Work
         rdf:about="">
        <dc:format>image/svg+xml</dc:format>
        <dc:type
           rdf:resource="http://purl.org/dc/dcmitype/StillImage" />
        <dc:title />
      </cc:Work>
    </rdf:RDF>
  </metadata>
  <g
     inkscape:label="Layer 1"
     inkscape:groupmode="layer"
     id="layer1">
    <path
       id="path835-3"
       style="fill:#000000;fill-opacity:1;stroke-width:22.67716564;stroke:#d6b000;stroke-opacity:1;stroke-miterlimit:4;stroke-dasharray:none"
       inkscape:transform-center-y="-21.333336"
       d="M 384.09588,278.42529 180.30842,685.99854 a 25.95738,25.95738 58.282572 0 0 23.21697,37.56591 67.468459,67.468459 148.02551 0 0 60.17759,-37.5659 L 384.09585,445.21434 a 20.999875,20.999875 2.7936375e-4 0 1 37.56576,1.8e-4 l 70.18655,140.37565 a 21.000302,21.000302 7.4517045e-4 0 0 37.56638,4.9e-4 l 4.13186,-8.26335 a 83.998031,83.998031 90.000537 0 0 7.1e-4,-75.13153 L 421.66188,278.42532 a 21.000043,21.000043 4.6766691e-5 0 0 -37.566,-3e-5 z"
       transform="scale(0.26458333)"
       inkscape:path-effect="#path-effect832"
       inkscape:original-d="M 402.87891 240.85938 L 161.52539 723.56445 L 244.91992 723.56445 L 402.87891 407.64844 L 510.63086 623.15625 L 552.33008 539.76172 L 402.87891 240.85938 z " />
    <path
       id="path835"
       style="fill:#000000;fill-opacity:1;stroke-width:22.67716564;stroke:#73a8b5;stroke-opacity:1;stroke-miterlimit:4;stroke-dasharray:none"
       inkscape:transform-center-x="1.2248823e-06"
       inkscape:transform-center-y="-21.333336"
       d="M 599.59392,278.42529 395.26936,687.07276 a 25.957381,25.957381 58.282572 0 0 23.21697,37.56591 67.48106,67.48106 148.03219 0 0 60.19321,-37.5659 L 599.59389,445.24559 a 21.000001,21.000001 1.409984e-4 0 1 37.56594,9e-5 l 120.91276,241.827 a 67.957242,67.957242 31.717545 0 0 60.78288,37.56599 25.776888,25.776888 121.06196 0 0 22.62724,-37.56597 L 637.15986,278.42535 a 21,21 9.2378299e-5 0 0 -37.56594,-6e-5 z"
       transform="scale(0.26458333)"
       inkscape:path-effect="#path-effect834"
       inkscape:original-d="M 618.37695 240.85938 L 376.48633 724.63867 L 459.89648 724.63867 L 618.37695 407.67969 L 776.85547 724.63867 L 860.26562 724.63867 L 618.37695 240.85938 z " />
  </g>
</svg>
